# Blender v3.0.0 OBJ File: ''
# www.blender.org
mtllib Low-Poly Doughnut.mtl
o Doughnut_lp_Torus.007
v 0.030587 0.017001 0.031131
v 0.020432 0.021655 0.020989
v 0.010085 0.016012 0.010617
v 0.010586 -0.015476 0.010762
v 0.020640 -0.022372 0.020971
v 0.030641 -0.017149 0.031217
v 0.043097 0.017077 0.007235
v 0.028946 0.022218 0.004822
v 0.014348 0.016236 0.002336
v 0.014920 -0.015463 0.002430
v 0.028990 -0.022254 0.004825
v 0.042575 -0.016584 0.007145
v 0.038531 0.016391 -0.019209
v 0.026149 0.021569 -0.013128
v 0.013102 0.016101 -0.006666
v 0.013610 -0.015417 -0.006858
v 0.026300 -0.022224 -0.013121
v 0.038509 -0.016404 -0.019203
v 0.019893 0.016414 -0.038212
v 0.013586 0.021569 -0.025912
v 0.006897 0.016100 -0.012981
v 0.007057 -0.015395 -0.013533
v 0.013506 -0.022048 -0.026077
v 0.019846 -0.016409 -0.038178
v -0.006459 0.017050 -0.043230
v -0.004253 0.022392 -0.029063
v -0.002023 0.016258 -0.014373
v -0.002233 -0.015325 -0.015034
v -0.004391 -0.021344 -0.028975
v -0.006369 -0.016270 -0.042448
v -0.030656 0.017095 -0.031235
v -0.020615 0.022570 -0.020948
v -0.010206 0.016282 -0.010287
v -0.010521 -0.015444 -0.010891
v -0.020490 -0.021201 -0.020929
v -0.030081 -0.016271 -0.030617
v -0.042570 0.016505 -0.007140
v -0.028959 0.022416 -0.004758
v -0.014547 0.016098 -0.002171
v -0.014578 -0.015935 -0.002578
v -0.028816 -0.021362 -0.004902
v -0.042441 -0.016353 -0.007079
v -0.038487 0.016335 0.019219
v -0.026269 0.022112 0.013174
v -0.013499 0.015662 0.006795
v -0.013184 -0.016074 0.006506
v -0.026252 -0.021689 0.012991
v -0.039060 -0.016891 0.019469
v -0.019811 0.016241 0.038093
v -0.013456 0.021475 0.025975
v -0.006873 0.015818 0.013180
v -0.006729 -0.016067 0.013085
v -0.013563 -0.022391 0.026026
v -0.020267 -0.017168 0.038860
v 0.006377 0.016423 0.042561
v 0.004301 0.021264 0.028971
v 0.002153 0.015585 0.014904
v 0.002346 -0.015598 0.014842
v 0.004400 -0.022434 0.029092
v 0.006481 -0.017262 0.043384
v 0.034204 -0.007963 0.034833
v 0.047634 -0.007688 0.008021
v -0.047160 -0.007537 -0.007906
v -0.033719 -0.007625 -0.034315
v 0.042809 -0.007519 -0.021345
v -0.043075 -0.007703 0.021495
v 0.022225 -0.007584 -0.042684
v -0.022288 -0.007780 0.042881
v -0.007064 -0.007561 -0.047297
v 0.007248 -0.007939 0.048274
v 0.034227 0.007993 0.034802
v 0.048049 0.007914 0.008092
v 0.042894 0.007584 -0.021364
v 0.022251 0.007640 -0.042768
v -0.007156 0.007786 -0.047804
v -0.034070 0.007834 -0.034701
v -0.047160 0.007500 -0.007946
v -0.042632 0.007434 0.021259
v -0.022008 0.007515 0.042351
v 0.007188 0.007728 0.047755
v 0.006914 -0.007821 0.007069
v 0.025959 0.022037 0.013604
v 0.009878 -0.007804 0.001466
v 0.026081 -0.022313 0.013547
v 0.028957 0.021958 -0.004423
v 0.009290 -0.007741 -0.004836
v 0.029048 -0.022228 -0.004358
v 0.020848 0.021416 -0.020485
v 0.004991 -0.007743 -0.009209
v 0.020931 -0.022202 -0.020599
v 0.004952 0.021979 -0.028877
v -0.001301 -0.007803 -0.009907
v 0.004756 -0.021695 -0.028931
v -0.013084 0.022570 -0.026301
v -0.006961 -0.007865 -0.007057
v -0.013069 -0.021195 -0.026200
v -0.026056 0.022505 -0.013509
v -0.009905 -0.008084 -0.001608
v -0.025896 -0.021270 -0.013584
v -0.029021 0.022307 0.004445
v -0.009002 -0.008100 0.004480
v -0.028925 -0.021472 0.004257
v -0.020877 0.021794 0.020563
v -0.004658 -0.008076 0.008881
v -0.020958 -0.022063 0.020478
v -0.004768 0.021292 0.028856
v 0.001441 -0.007840 0.009800
v -0.004793 -0.022478 0.028982
v 0.019360 0.016709 0.038743
v 0.006383 0.015739 0.013440
v 0.006761 -0.015488 0.013477
v 0.019559 -0.017265 0.039226
v 0.006504 0.008140 0.006863
v 0.038801 0.017159 0.020229
v 0.012841 0.016189 0.006791
v 0.009369 0.008181 0.001381
v 0.013392 -0.015473 0.006950
v 0.038504 -0.016873 0.020105
v 0.042892 0.016738 -0.006382
v 0.014419 0.016177 -0.002321
v 0.008827 0.008106 -0.004616
v 0.014988 -0.015439 -0.002341
v 0.042561 -0.016437 -0.006367
v 0.030627 0.016281 -0.030095
v 0.010498 0.016068 -0.010316
v 0.004770 0.008106 -0.008745
v 0.010866 -0.015404 -0.010703
v 0.030678 -0.016417 -0.030159
v 0.007142 0.016732 -0.042785
v 0.002592 0.016177 -0.014367
v -0.001207 0.008177 -0.009392
v 0.002538 -0.015359 -0.015007
v 0.007056 -0.016340 -0.042374
v -0.019543 0.017187 -0.039222
v -0.006438 0.016288 -0.012956
v -0.006749 0.008187 -0.006639
v -0.006746 -0.015331 -0.013606
v -0.019146 -0.016262 -0.038384
v -0.038513 0.016806 -0.020109
v -0.012981 0.016240 -0.006579
v -0.009947 0.008081 -0.001342
v -0.013184 -0.015688 -0.007084
v -0.038056 -0.016269 -0.019819
v -0.042557 0.016374 0.006379
v -0.014734 0.015830 0.002482
v -0.009311 0.007834 0.004654
v -0.014569 -0.016039 0.002114
v -0.042826 -0.016605 0.006447
v -0.030619 0.016282 0.030132
v -0.010780 0.015733 0.010411
v -0.004802 0.008019 0.008899
v -0.010492 -0.016115 0.010252
v -0.031247 -0.017074 0.030642
v -0.007084 0.016272 0.042323
v -0.002363 0.015689 0.014770
v 0.001291 0.007892 0.009751
v -0.002281 -0.015841 0.014679
v -0.007248 -0.017227 0.043232
v 0.012953 0.021381 0.026249
v 0.013146 -0.022401 0.026310
v 0.021808 -0.007987 0.043737
v -0.007951 -0.007855 0.047897
v -0.034387 -0.007746 0.033787
v -0.047389 -0.007603 0.007121
v -0.042501 -0.007577 -0.022196
v -0.021443 -0.007600 -0.042881
v 0.007979 -0.007573 -0.047284
v 0.034168 -0.007546 -0.033657
v 0.047458 -0.007568 -0.007034
v 0.043073 -0.007844 0.022467
v 0.021708 0.007879 0.043450
v -0.007854 0.007604 0.047307
v -0.033965 0.007461 0.033384
v -0.047115 0.007428 0.007041
v -0.042747 0.007679 -0.022370
v -0.021706 0.007850 -0.043409
v 0.007995 0.007713 -0.047588
v 0.034178 0.007576 -0.033665
v 0.047748 0.007730 -0.007035
v 0.043339 0.008009 0.022561
v 0.008319 0.008196 0.004339
v 0.008789 -0.007821 0.004533
v 0.009558 0.008143 -0.001733
v 0.010068 -0.007771 -0.001796
v 0.007155 0.008089 -0.007031
v 0.007518 -0.007725 -0.007391
v 0.001902 0.008142 -0.009526
v 0.001962 -0.007773 -0.010041
v -0.004175 0.008193 -0.008398
v -0.004378 -0.007820 -0.008875
v -0.008751 0.008162 -0.004225
v -0.008862 -0.007977 -0.004560
v -0.010134 0.007923 0.001760
v -0.009933 -0.008107 0.001518
v -0.007474 0.007920 0.007081
v -0.007192 -0.008106 0.007013
v -0.001728 0.007957 0.009816
v -0.001662 -0.007957 0.009820
v 0.004073 0.007990 0.008729
v 0.004377 -0.007808 0.008858
vt 0.301111 0.502978
vt 0.301111 0.425981
vt 0.350612 0.425981
vt 0.350612 0.502978
vt 0.896146 0.425981
vt 0.946190 0.425981
vt 0.946190 0.502978
vt 0.896146 0.502978
vt 0.796293 0.124230
vt 0.746774 0.124230
vt 0.746774 0.003907
vt 0.796293 0.003906
vt 0.996093 0.926850
vt 0.996094 0.996093
vt 0.946190 0.996093
vt 0.946190 0.926850
vt 0.697421 0.124230
vt 0.697421 0.003906
vt 0.846103 0.124230
vt 0.846103 0.194640
vt 0.796293 0.194640
vt 0.796293 0.502978
vt 0.796293 0.425981
vt 0.846103 0.425981
vt 0.846103 0.502978
vt 0.896146 0.313265
vt 0.846103 0.313265
vt 0.746774 0.194640
vt 0.796293 0.313265
vt 0.746774 0.425981
vt 0.746774 0.313265
vt 0.648173 0.313266
vt 0.648173 0.194640
vt 0.697421 0.194640
vt 0.697421 0.313265
vt 0.896145 0.194640
vt 0.697421 0.808886
vt 0.648173 0.808886
vt 0.648173 0.696351
vt 0.697421 0.696351
vt 0.946190 0.313265
vt 0.796293 0.808886
vt 0.796293 0.696351
vt 0.846103 0.696351
vt 0.846103 0.808886
vt 0.697421 0.926850
vt 0.648173 0.926850
vt 0.003906 0.926850
vt 0.003906 0.808886
vt 0.053517 0.808886
vt 0.053517 0.926850
vt 0.946190 0.124230
vt 0.946190 0.194640
vt 0.896145 0.124230
vt 0.846103 0.926850
vt 0.796293 0.926850
vt 0.846103 0.003906
vt 0.796293 0.996093
vt 0.846103 0.996093
vt 0.896146 0.003906
vt 0.896145 0.926850
vt 0.896146 0.996093
vt 0.152873 0.619201
vt 0.152872 0.696351
vt 0.103056 0.696351
vt 0.103056 0.619201
vt 0.449729 0.502978
vt 0.449729 0.619200
vt 0.400237 0.619200
vt 0.400237 0.502978
vt 0.598785 0.808886
vt 0.598784 0.926850
vt 0.946190 0.696351
vt 0.946190 0.619200
vt 0.996094 0.619201
vt 0.996093 0.696351
vt 0.746774 0.808886
vt 0.746774 0.926850
vt 0.746774 0.696351
vt 0.251921 0.619201
vt 0.202620 0.619201
vt 0.202620 0.502978
vt 0.251921 0.502978
vt 0.103056 0.502978
vt 0.103056 0.425981
vt 0.152872 0.425981
vt 0.152872 0.502978
vt 0.896146 0.696351
vt 0.896145 0.808886
vt 0.350612 0.619201
vt 0.301111 0.619200
vt 0.053517 0.425981
vt 0.053517 0.502978
vt 0.796293 0.619201
vt 0.746774 0.619201
vt 0.746774 0.502978
vt 0.996093 0.313265
vt 0.996093 0.425981
vt 0.400237 0.425981
vt 0.449729 0.425981
vt 0.697421 0.425981
vt 0.003906 0.502978
vt 0.003906 0.425981
vt 0.400237 0.313265
vt 0.350612 0.313265
vt 0.549047 0.808886
vt 0.549047 0.926850
vt 0.549047 0.313265
vt 0.549047 0.194640
vt 0.598784 0.194640
vt 0.598785 0.313265
vt 0.648173 0.124230
vt 0.648173 0.425981
vt 0.598784 0.425981
vt 0.549047 0.425981
vt 0.648173 0.003906
vt 0.697421 0.996093
vt 0.746774 0.996094
vt 0.549047 0.696351
vt 0.598784 0.696351
vt 0.598784 0.502978
vt 0.648173 0.502978
vt 0.499270 0.502978
vt 0.499270 0.619201
vt 0.648172 0.619200
vt 0.598785 0.619201
vt 0.499270 0.425981
vt 0.549047 0.502978
vt 0.598785 0.124230
vt 0.449729 0.313265
vt 0.449729 0.194640
vt 0.499270 0.194640
vt 0.499270 0.313265
vt 0.549047 0.124229
vt 0.549047 0.003907
vt 0.598784 0.003906
vt 0.598785 0.996093
vt 0.648173 0.996093
vt 0.846103 0.619201
vt 0.499270 0.808886
vt 0.499270 0.926850
vt 0.449729 0.926850
vt 0.449729 0.808886
vt 0.449729 0.696351
vt 0.499270 0.696351
vt 0.896146 0.619200
vt 0.697421 0.619201
vt 0.202620 0.425981
vt 0.251921 0.425981
vt 0.996093 0.502978
vt 0.499270 0.124230
vt 0.697421 0.502978
vt 0.350612 0.194640
vt 0.400237 0.194640
vt 0.449729 0.003907
vt 0.499270 0.003906
vt 0.449729 0.124230
vt 0.499270 0.996093
vt 0.549048 0.996094
vt 0.549047 0.619200
vt 0.350612 0.808887
vt 0.400237 0.808886
vt 0.400237 0.926850
vt 0.350612 0.926850
vt 0.350612 0.696351
vt 0.400237 0.696351
vt 0.400237 0.124230
vt 0.251921 0.313265
vt 0.251921 0.194640
vt 0.301111 0.194640
vt 0.301112 0.313265
vt 0.350612 0.124230
vt 0.251921 0.808886
vt 0.301111 0.808886
vt 0.301111 0.926850
vt 0.251921 0.926850
vt 0.350612 0.003906
vt 0.400237 0.003906
vt 0.400237 0.996093
vt 0.449729 0.996094
vt 0.251921 0.696351
vt 0.301111 0.696351
vt 0.301111 0.124230
vt 0.152873 0.808886
vt 0.202620 0.808886
vt 0.202620 0.926850
vt 0.152873 0.926850
vt 0.152872 0.313265
vt 0.152873 0.194640
vt 0.202620 0.194640
vt 0.202620 0.313265
vt 0.251921 0.124229
vt 0.251921 0.003906
vt 0.301112 0.003906
vt 0.301111 0.996093
vt 0.350612 0.996094
vt 0.202620 0.696351
vt 0.053517 0.619201
vt 0.053517 0.313265
vt 0.003906 0.313266
vt 0.202620 0.124229
vt 0.103056 0.808886
vt 0.103056 0.926850
vt 0.053517 0.194640
vt 0.103056 0.194640
vt 0.103056 0.313266
vt 0.152872 0.124230
vt 0.152872 0.003907
vt 0.202620 0.003906
vt 0.202620 0.996093
vt 0.251921 0.996093
vt 0.053517 0.696351
vt 0.103056 0.124230
vt 0.946190 0.808886
vt 0.996093 0.808886
vt 0.996093 0.194640
vt 0.053517 0.124229
vt 0.003906 0.996094
vt 0.053517 0.996094
vt 0.053517 0.003906
vt 0.103056 0.003906
vt 0.103056 0.996094
vt 0.152872 0.996093
vt 0.996094 0.124230
vt 0.996093 0.003907
vt 0.946190 0.003906
vt 0.003906 0.124230
vt 0.003906 0.003907
vt 0.003906 0.194640
vt 0.003906 0.696351
vt 0.003906 0.619201
vn -0.9600 0.2391 0.1455
vn -0.6900 0.7150 0.1123
vn -0.6906 0.7169 -0.0955
vn -0.9619 0.2309 -0.1461
vn 0.5815 0.7523 0.3097
vn 0.4420 0.7578 0.4801
vn 0.6731 0.2525 0.6951
vn 0.8637 0.2395 0.4435
vn -0.9599 0.2620 0.0993
vn -0.8773 0.2577 0.4049
vn -0.8652 -0.2997 0.4020
vn -0.9467 -0.3058 0.1008
vn -0.2789 -0.7693 -0.5747
vn -0.4304 -0.3069 -0.8488
vn -0.6688 -0.3154 -0.6732
vn -0.4451 -0.7709 -0.4556
vn -0.6898 0.2545 0.6778
vn -0.6818 -0.2959 0.6690
vn -0.9454 0.2683 -0.1851
vn -0.6115 0.7832 -0.1127
vn -0.6210 0.7814 0.0621
vn 0.9579 0.2331 -0.1676
vn 0.6597 0.7399 -0.1318
vn 0.6604 0.7452 0.0922
vn 0.9623 0.2324 0.1415
vn -0.0020 0.9998 0.0219
vn 0.0167 0.9998 -0.0075
vn -0.5660 0.7836 0.2563
vn 0.0197 0.9992 -0.0362
vn 0.5926 0.7400 -0.3181
vn 0.0199 0.9991 -0.0383
vn 0.0389 0.9991 -0.0183
vn -0.2659 0.7835 0.5617
vn -0.4432 0.7835 0.4355
vn 0.0267 0.9993 -0.0256
vn -0.5562 0.7871 -0.2667
vn 0.0081 -0.9999 -0.0152
vn -0.0068 -0.9998 -0.0211
vn 0.3066 -0.7359 -0.6037
vn 0.4890 -0.7293 -0.4785
vn -0.0191 0.9994 0.0294
vn 0.0163 -0.9998 -0.0078
vn 0.6758 -0.7287 -0.1110
vn 0.6711 -0.7355 0.0933
vn 0.0141 -0.9999 -0.0089
vn -0.4683 -0.7576 0.4547
vn -0.3005 -0.7643 0.5706
vn -0.0007 -0.9999 -0.0146
vn 0.0067 -0.9999 -0.0099
vn -0.0749 -0.7682 -0.6358
vn -0.6927 0.2844 -0.6628
vn -0.4579 0.7916 -0.4046
vn -0.8541 0.2757 -0.4410
vn -0.6286 -0.7691 -0.1157
vn -0.6399 -0.7642 0.0811
vn -0.9322 -0.3127 -0.1825
vn -0.8390 -0.3164 -0.4426
vn -0.5633 -0.7707 -0.2978
vn -0.4607 -0.1999 0.8648
vn -0.3275 -0.7259 0.6048
vn -0.1206 -0.7307 0.6720
vn -0.1743 -0.2081 0.9625
vn -0.6904 0.2178 -0.6899
vn -0.6760 -0.2727 -0.6846
vn -0.8610 -0.2608 -0.4366
vn -0.8743 0.2246 -0.4304
vn -0.0199 -0.9996 -0.0178
vn -0.1078 -0.7751 0.6225
vn 0.4795 -0.7426 0.4676
vn 0.6843 -0.2448 0.6868
vn 0.4311 -0.2320 0.8720
vn 0.3022 -0.7422 0.5982
vn 0.0161 -0.9998 -0.0102
vn -0.5861 -0.7598 0.2815
vn 0.6158 -0.7251 -0.3082
vn -0.8799 -0.2068 0.4279
vn -0.7033 -0.1992 0.6824
vn -0.6914 0.2543 0.6762
vn -0.8678 0.2473 0.4310
vn -0.1733 0.2711 0.9468
vn -0.1178 0.7487 0.6524
vn -0.3106 0.7368 0.6005
vn -0.4527 0.2623 0.8522
vn 0.6057 -0.7407 0.2908
vn 0.0073 -0.9999 -0.0118
vn -0.9575 -0.2407 -0.1589
vn -0.9660 -0.2212 0.1340
vn 0.0776 0.7575 0.6482
vn 0.1249 0.2739 0.9536
vn 0.9541 -0.2540 -0.1588
vn 0.8661 -0.2458 -0.4352
vn 0.8642 0.2408 -0.4418
vn -0.0223 0.9995 0.0220
vn 0.2670 0.7607 0.5917
vn -0.6233 0.7242 -0.2951
vn -0.4894 0.7291 -0.4784
vn 0.4786 0.7449 -0.4649
vn 0.4163 0.2665 0.8693
vn -0.0341 0.9994 0.0034
vn -0.0381 0.9992 0.0154
vn -0.0175 -0.9998 -0.0124
vn 0.0883 -0.7868 0.6109
vn 0.0234 0.9995 -0.0233
vn 0.1159 0.7785 0.6168
vn -0.0691 0.7802 0.6217
vn 0.0412 0.9990 -0.0195
vn -0.4202 0.2576 0.8701
vn 0.3261 0.7449 -0.5820
vn 0.1373 0.7372 -0.6616
vn -0.0806 0.7292 -0.6795
vn -0.4187 -0.3017 0.8565
vn -0.1055 -0.7437 -0.6601
vn 0.0978 -0.7399 -0.6656
vn 0.1676 0.2302 -0.9586
vn 0.4560 0.2467 -0.8551
vn -0.4295 0.2110 -0.8781
vn -0.4233 -0.2716 -0.8643
vn 0.4481 -0.2543 -0.8570
vn 0.1550 -0.2595 -0.9532
vn -0.2998 0.7288 -0.6156
vn -0.1350 0.2136 -0.9675
vn -0.1154 0.2614 0.9583
vn -0.0218 0.9997 -0.0083
vn 0.4355 0.7745 0.4588
vn 0.2849 0.7766 0.5619
vn -0.0018 0.9998 -0.0173
vn 0.1710 0.2658 0.9487
vn 0.1638 -0.3201 0.9331
vn -0.1202 -0.3107 0.9429
vn 0.9551 -0.2609 0.1400
vn -0.0081 -0.9999 -0.0118
vn 0.2762 -0.7926 0.5436
vn 0.4406 -0.7937 0.4195
vn -0.0069 -0.9998 -0.0194
vn -0.4603 -0.7534 -0.4696
vn -0.2933 -0.7504 -0.5923
vn 0.8644 -0.2567 0.4324
vn 0.6959 -0.2473 -0.6742
vn -0.4847 0.7265 0.4872
vn -0.6190 0.7187 0.3168
vn 0.4317 0.2678 0.8613
vn 0.6958 0.2492 -0.6736
vn 0.6282 0.7643 0.1458
vn 0.5543 0.7697 0.3168
vn 0.6659 -0.3149 0.6763
vn 0.4283 -0.3228 0.8440
vn 0.6600 0.2672 0.7021
vn -0.1409 -0.2646 -0.9540
vn -0.0226 -0.9995 -0.0223
vn -0.0139 -0.9996 -0.0242
vn 0.5577 -0.7893 0.2569
vn 0.6131 -0.7859 0.0802
vn -0.6599 -0.7415 -0.1217
vn -0.5875 -0.7490 -0.3064
vn 0.8358 0.2674 0.4795
vn -0.0205 0.9993 0.0299
vn 0.5816 0.7654 -0.2753
vn 0.6467 0.7608 -0.0548
vn -0.0303 0.9992 0.0251
vn 0.9404 0.2709 0.2054
vn -0.0240 -0.9996 -0.0171
vn -0.0234 -0.9996 -0.0182
vn 0.6145 -0.7820 -0.1045
vn 0.5563 -0.7775 -0.2933
vn 0.9457 -0.2811 0.1634
vn 0.8459 -0.2987 0.4419
vn -0.6187 -0.7323 0.2846
vn -0.6717 -0.7367 0.0782
vn 0.9557 0.2754 -0.1041
vn -0.0093 -1.0000 -0.0009
vn -0.0219 -0.9997 -0.0117
vn 0.4463 -0.7703 -0.4555
vn 0.3034 -0.7659 -0.5669
vn -0.0003 0.9995 0.0324
vn 0.2921 0.7797 -0.5539
vn 0.4471 0.7709 -0.4537
vn -0.0101 0.9995 0.0316
vn 0.8600 0.2805 -0.4263
vn 0.8637 -0.2581 -0.4329
vn 0.9545 -0.2651 -0.1364
vn -0.4998 -0.7279 0.4695
vn 0.1338 -0.2198 0.9663
vn -0.0085 0.9998 0.0191
vn 0.6646 0.2821 -0.6919
vn 0.0066 -1.0000 -0.0021
vn 0.1305 -0.7649 -0.6307
vn -0.1009 0.7952 -0.5978
vn 0.1165 0.7882 -0.6043
vn 0.0036 0.9997 0.0251
vn 0.4261 0.2859 -0.8583
vn 0.4430 -0.2702 -0.8548
vn 0.6827 -0.2602 -0.6828
vn 0.0962 -0.7375 0.6684
vn 0.1528 0.2906 -0.9446
vn 0.0010 -0.9999 -0.0129
vn -0.3092 0.7942 -0.5232
vn -0.1627 0.2934 -0.9420
vn -0.1409 -0.2945 -0.9452
vn 0.1633 -0.2814 -0.9456
vn -0.4620 0.2908 -0.8378
usemtl Material.001
s 1
f 174/1/1 144/2/2 37/3/3 77/4/4
f 114/5/5 1/6/6 71/7/7 180/8/8
f 183/9/9 121/10/10 86/11/11 184/12/12
f 111/13/13 200/14/14 81/15/15 4/16/16
f 185/17/17 186/18/18 86/11/11 121/10/10
f 116/19/19 9/20/20 120/21/21 183/9/9
f 179/22/22 119/23/23 7/24/24 72/25/25
f 82/26/26 114/5/5 7/24/24 8/27/27
f 121/10/10 183/9/9 120/21/21 15/28/28
f 85/29/29 119/23/23 13/30/30 14/31/31
f 20/32/32 21/33/33 125/34/34 88/35/35
f 85/29/29 14/31/31 15/28/28 120/21/21
f 8/27/27 9/20/20 115/36/36 82/26/26
f 90/37/37 23/38/38 24/39/39 128/40/40
f 82/26/26 2/41/41 1/6/6 114/5/5
f 87/42/42 123/43/43 12/44/44 11/45/45
f 23/38/38 90/37/37 127/46/46 22/47/47
f 111/48/13 160/49/48 59/50/49 58/51/50
f 113/52/51 3/53/52 115/36/36 181/54/53
f 87/42/42 11/45/45 10/55/54 122/56/55
f 183/9/9 184/12/12 83/57/56 116/19/19
f 184/58/12 122/56/55 10/55/54 83/59/56
f 83/57/56 182/60/57 181/54/53 116/19/19
f 83/59/56 10/55/54 117/61/58 182/62/57
f 68/63/59 54/64/60 158/65/61 162/66/62
f 117/61/58 4/16/16 81/15/15 182/62/57
f 76/67/63 64/68/64 165/69/65 175/70/66
f 93/71/67 23/38/38 22/47/47 132/72/68
f 6/73/69 61/74/70 161/75/71 112/76/72
f 17/77/73 87/42/42 122/56/55 16/78/74
f 17/77/73 18/79/75 123/43/43 87/42/42
f 66/80/76 163/81/77 173/82/78 78/83/79
f 172/84/80 154/85/81 49/86/82 79/87/83
f 11/45/45 12/44/44 118/88/84 84/89/85
f 77/4/4 63/90/86 164/91/87 174/1/1
f 116/19/19 181/54/53 115/36/36 9/20/20
f 55/92/88 154/85/81 172/84/80 80/93/89
f 179/22/22 169/94/90 65/95/91 73/96/92
f 159/97/93 109/98/94 1/6/6 2/41/41
f 175/70/66 139/99/95 31/100/96 76/67/63
f 13/30/30 124/101/97 88/35/35 14/31/31
f 121/10/10 15/28/28 125/34/34 185/17/17
f 171/102/98 109/103/94 55/92/88 80/93/89
f 97/104/99 139/99/95 37/3/3 38/105/100
f 29/106/101 93/71/67 132/72/68 28/107/102
f 72/25/25 7/24/24 114/5/5 180/8/8
f 26/108/103 27/109/104 130/110/105 91/111/106
f 126/112/107 185/17/17 125/34/34 21/33/33
f 88/35/35 124/101/97 19/113/108 20/32/32
f 26/108/103 91/111/106 129/114/109 25/115/110
f 8/27/27 85/29/29 120/21/21 9/20/20
f 89/116/111 186/18/18 185/17/17 126/112/107
f 79/87/83 68/63/59 162/66/62 172/84/80
f 186/117/18 127/46/46 16/78/74 86/118/11
f 90/37/37 17/77/73 16/78/74 127/46/46
f 86/118/11 16/78/74 122/56/55 184/58/12
f 93/71/67 29/106/101 30/119/112 133/120/113
f 169/94/90 123/43/43 18/79/75 65/95/91
f 177/121/114 129/114/109 19/113/108 74/122/115
f 91/111/106 20/32/32 19/113/108 129/114/109
f 176/123/116 166/124/117 64/68/64 76/67/63
f 74/122/115 67/125/118 167/126/119 177/121/114
f 176/123/116 134/127/120 25/115/110 75/128/121
f 126/112/107 21/33/33 130/110/105 187/129/122
f 88/35/35 125/34/34 15/28/28 14/31/31
f 117/61/58 10/55/54 11/45/45 84/89/85
f 13/30/30 119/23/23 179/22/22 73/96/92
f 32/130/123 33/131/124 135/132/125 94/133/126
f 131/134/127 187/129/122 130/110/105 27/109/104
f 7/24/24 119/23/23 85/29/29 8/27/27
f 32/130/123 94/133/126 134/127/120 31/100/96
f 131/134/127 92/135/128 188/136/129 187/129/122
f 188/137/129 132/72/68 22/47/47 89/138/111
f 62/139/130 169/94/90 179/22/22 72/25/25
f 96/140/131 137/141/132 34/142/133 35/143/134
f 187/129/122 188/136/129 89/116/111 126/112/107
f 89/138/111 22/47/47 127/46/46 186/117/18
f 96/140/131 35/143/134 36/144/135 138/145/136
f 118/88/84 12/44/44 62/139/130 170/146/137
f 168/147/138 128/40/40 24/39/39 67/125/118
f 173/82/78 149/148/139 43/149/140 78/83/79
f 90/37/37 128/40/40 18/79/75 17/77/73
f 175/70/66 165/69/65 63/90/86 77/4/4
f 61/74/70 170/146/137 180/8/8 71/7/7
f 109/98/94 171/150/98 71/7/7 1/6/6
f 131/134/127 27/109/104 135/132/125 189/151/141
f 91/111/106 130/110/105 21/33/33 20/32/32
f 19/113/108 124/101/97 178/152/142 74/122/115
f 38/105/100 39/153/143 140/154/144 97/104/99
f 95/155/145 190/156/146 189/151/141 136/157/147
f 136/157/147 189/151/141 135/132/125 33/131/124
f 190/158/146 137/141/132 28/107/102 92/159/128
f 75/128/121 69/160/148 166/124/117 176/123/116
f 189/151/141 190/156/146 92/135/128 131/134/127
f 41/161/149 99/162/150 142/163/151 40/164/152
f 92/159/128 28/107/102 132/72/68 188/137/129
f 99/162/150 41/161/149 42/165/153 143/166/154
f 93/71/67 133/120/113 24/39/39 23/38/38
f 174/1/1 164/91/87 66/80/76 78/83/79
f 177/121/114 167/126/119 69/160/148 75/128/121
f 136/157/147 33/131/124 140/154/144 191/167/155
f 94/133/126 135/132/125 27/109/104 26/108/103
f 25/115/110 129/114/109 177/121/114 75/128/121
f 44/168/156 45/169/157 145/170/158 100/171/159
f 141/172/160 191/167/155 140/154/144 39/153/143
f 100/171/159 144/2/2 43/149/140 44/168/156
f 47/173/161 102/174/162 147/175/163 46/176/164
f 98/177/165 192/178/166 191/167/155 141/172/160
f 73/96/92 65/95/91 168/147/138 178/152/142
f 192/179/166 142/163/151 34/142/133 95/180/145
f 99/162/150 35/143/134 34/142/133 142/163/151
f 191/167/155 192/178/166 95/155/145 136/157/147
f 95/180/145 34/142/133 137/141/132 190/158/146
f 102/174/162 47/173/161 48/181/167 148/182/168
f 167/126/119 133/120/113 30/119/112 69/160/148
f 96/140/131 29/106/101 28/107/102 137/141/132
f 178/152/142 124/101/97 13/30/30 73/96/92
f 96/140/131 138/145/136 30/119/112 29/106/101
f 173/82/78 163/81/77 68/63/59 79/87/83
f 141/172/160 39/153/143 145/170/158 193/183/169
f 97/104/99 140/154/144 33/131/124 32/130/123
f 53/184/170 105/185/171 152/186/172 52/187/173
f 31/100/96 134/127/120 176/123/116 76/67/63
f 50/188/174 51/189/175 150/190/176 103/191/177
f 146/192/178 193/183/169 145/170/158 45/169/157
f 25/115/110 134/127/120 94/133/126 26/108/103
f 103/191/177 149/148/139 49/86/82 50/188/174
f 101/193/179 194/194/180 193/183/169 146/192/178
f 194/195/180 147/175/163 40/164/152 98/196/165
f 102/174/162 41/161/149 40/164/152 147/175/163
f 193/183/169 194/194/180 98/177/165 141/172/160
f 98/196/165 40/164/152 142/163/151 192/179/166
f 105/185/171 53/184/170 54/64/60 153/197/181
f 138/145/136 36/144/135 64/68/64 166/124/117
f 99/162/150 143/166/154 36/144/135 35/143/134
f 162/66/62 70/198/182 80/93/89 172/84/80
f 56/199/183 55/92/88 109/103/94 159/200/93
f 146/192/178 45/169/157 150/190/176 195/201/184
f 100/171/159 145/170/158 39/153/143 38/105/100
f 59/50/49 108/202/185 157/203/186 58/51/50
f 37/3/3 139/99/95 175/70/66 77/4/4
f 56/199/183 57/204/187 155/205/188 106/206/189
f 151/207/190 195/201/184 150/190/176 51/189/175
f 31/100/96 139/99/95 97/104/99 32/130/123
f 106/206/189 154/85/81 55/92/88 56/199/183
f 104/208/191 196/209/192 195/201/184 151/207/190
f 170/146/137 62/139/130 72/25/25 180/8/8
f 196/210/192 152/186/172 46/176/164 101/211/179
f 105/185/171 47/173/161 46/176/164 152/186/172
f 195/201/184 196/209/192 101/193/179 146/192/178
f 71/7/7 171/150/98 161/75/71 61/74/70
f 101/211/179 46/176/164 147/175/163 194/195/180
f 108/202/185 59/50/49 60/212/193 158/65/61
f 164/91/87 148/182/168 48/181/167 66/80/76
f 102/174/162 148/182/168 42/165/153 41/161/149
f 151/207/190 51/189/175 155/205/188 197/213/194
f 103/191/177 150/190/176 45/169/157 44/168/156
f 111/13/13 4/16/16 5/214/195 160/215/48
f 43/149/140 144/2/2 174/1/1 78/83/79
f 110/216/196 159/97/93 2/41/41 3/53/52
f 156/217/197 197/213/194 155/205/188 57/204/187
f 37/3/3 144/2/2 100/171/159 38/105/100
f 200/218/14 111/48/13 58/51/50 107/219/198
f 107/220/198 198/221/199 197/213/194 156/217/197
f 198/222/199 157/203/186 52/187/173 104/223/191
f 108/202/185 53/184/170 52/187/173 157/203/186
f 197/213/194 198/221/199 104/208/191 151/207/190
f 118/88/84 6/73/69 5/214/195 84/89/85
f 104/223/191 52/187/173 152/186/172 196/210/192
f 112/76/72 160/215/48 5/214/195 6/73/69
f 143/166/154 42/165/153 63/90/86 165/69/65
f 163/81/77 153/197/181 54/64/60 68/63/59
f 105/185/171 153/197/181 48/181/167 47/173/161
f 115/36/36 3/53/52 2/41/41 82/26/26
f 106/206/189 155/205/188 51/189/175 50/188/174
f 49/86/82 149/148/139 173/82/78 79/87/83
f 113/52/51 199/224/200 110/216/196 3/53/52
f 103/191/177 44/168/156 43/149/140 149/148/139
f 30/119/112 138/145/136 166/124/117 69/160/148
f 200/225/14 199/224/200 113/52/51 81/226/15
f 199/227/200 200/228/14 107/220/198 156/217/197
f 107/219/198 58/51/50 157/203/186 198/222/199
f 108/202/185 158/65/61 54/64/60 53/184/170
f 106/206/189 50/188/174 49/86/82 154/85/81
f 199/227/200 156/217/197 57/204/187 110/229/196
f 81/226/15 113/52/51 181/54/53 182/60/57
f 59/50/49 160/49/48 112/230/72 60/212/193
f 67/125/118 74/122/115 178/152/142 168/147/138
f 70/198/182 60/212/193 112/230/72 161/231/71
f 162/66/62 158/65/61 60/212/193 70/198/182
f 65/95/91 18/79/75 128/40/40 168/147/138
f 62/139/130 12/44/44 123/43/43 169/94/90
f 24/39/39 133/120/113 167/126/119 67/125/118
f 64/68/64 36/144/135 143/166/154 165/69/65
f 66/80/76 48/181/167 153/197/181 163/81/77
f 63/90/86 42/165/153 148/182/168 164/91/87
f 56/199/183 159/200/93 110/229/196 57/204/187
f 117/61/58 84/89/85 5/214/195 4/16/16
f 118/88/84 170/146/137 61/74/70 6/73/69
f 80/93/89 70/198/182 161/231/71 171/102/98
